<svg id="Layer_1" enable-background="new 0 0 500 500" viewBox="0 0 500 500" xmlns="http://www.w3.org/2000/svg"><g><circle cx="250" cy="250" fill="#00a300" r="249.2"/></g><g><g enable-background="new"><path d="m244.9 287.2c9.6-29.6 23.9-53.8 42.9-72.5 20.8-20.8 44.7-31.2 71.6-31.2 24.1 0 43.4 8.4 57.8 25.1 12.2 14.1 18.4 31.5 18.4 52.3v6.7c0 18.6-5.8 33.1-17.4 43.5-10 9-23 13.5-38.9 13.5h-132.2c-6.9 0-13.4-.9-19.3-2.8-3.9 19.6-13.8 35-29.7 46.2-14.3 9.8-31.6 14.7-52 14.7-27.5 0-48.9-9.7-64-29.1-11.8-15.1-17.8-32.9-17.8-53.3 0-16.1 3.8-30.2 11.3-42.2l36.7-7.7c-8.2 13.9-12.2 28.5-12.2 43.8 0 15.5 4.4 28.1 13.2 37.6 8.4 9.2 19.3 13.8 32.8 13.8 14.1 0 25-3.6 32.9-10.7s11.8-17.1 11.8-30v-79.9l38.6-20.2v60.6c-.1 13.1 5.1 20.4 15.5 21.8zm152.2-22v-4.3c0-12.2-3.5-22.2-10.4-30s-15.9-11.6-26.9-11.6c-15.9 0-30.8 6.1-44.5 18.4-13.8 12.2-24.6 28.9-32.6 49.9h95.2c7.3 0 12.4-1.6 15.2-4.7 2.6-3.3 4-9.2 4-17.7zm-37.7-107.5c-6.1 0-11-1.8-14.7-5.5s-5.5-8.7-5.5-15c0-5.9 1.8-10.7 5.5-14.4s8.6-5.5 14.7-5.5 11 1.8 14.5 5.4c3.6 3.6 5.4 8.4 5.4 14.5 0 13.7-6.6 20.5-19.9 20.5z" fill="#fff"/></g></g></svg>