<svg height="182" viewBox="0 0 182 182" width="182" xmlns="http://www.w3.org/2000/svg" xmlns:sketch="http://www.bohemiancoding.com/sketch/ns"><g id="Page-1" fill="none" fill-rule="evenodd"><g id="UK" transform="translate(1 1)"><circle id="Oval-1-copy-9" cx="90" cy="90" fill="#346da6" r="90"/><path id="Oval-1-copy-6" d="m163.36122 37.8519838c-2.915933-4.0947193-6.166118-7.9348993-9.71074-11.4807243l-.02174-.0217397c-3.545825-3.5446214-7.386005-6.7948065-11.480724-9.7107395l-125.5092357 125.5092357c2.915933 4.094719 6.1661181 7.934899 9.7107396 11.480724l.0217397.02174c3.5458249 3.544622 7.3860049 6.794807 11.4807242 9.71074zm0 0" fill="#fff"/><path id="Oval-1-copy-5" d="m142.148016 163.36122c4.09472-2.915933 7.9349-6.166119 11.480725-9.71074l.02174-.02174c3.544621-3.545825 6.794806-7.386005 9.710739-11.480724l-125.5092362-125.5092357c-4.0947193 2.915933-7.9348993 6.1661181-11.4807243 9.7107396l-.0217397.0217397c-3.5446214 3.5458249-6.7948065 7.3860049-9.7107395 11.4807242zm0 0" fill="#fff"/><g fill="#ca4638"><path id="Oval-1-copy-9" d="m160.2874 33.7836674c-2.089442-2.6090426-4.321139-5.0992296-6.683333-7.4588027l-63.2020467 63.2020472 7.0710678 7.0710678zm0 0" transform="matrix(1 0 0 -1 0 180)"/><path id="Oval-1-copy-10" d="m33.7836674 19.7125996c-2.6090426 2.0894427-5.0992296 4.3211399-7.4588027 6.6833329l68.2020472 68.2020472 7.0710681-7.0710678zm0 0" transform="matrix(1 0 0 -1 0 180)"/><path id="Oval-1-copy-10" d="m146.216333 160.2874c2.609045-2.089444 5.099234-4.321143 7.458808-6.683339l-58.2020529-58.2020407-7.0710678 7.0710677zm0 0" transform="matrix(1 0 0 -1 0 180)"/><path id="Oval-1-copy-10" d="m19.7125996 146.216333c2.0894429 2.609042 4.3211402 5.09923 6.6833335 7.458803l57.2020466-57.2020479-7.0710678-7.0710678-56.8143125 56.8143127zm0 0" transform="matrix(1 0 0 -1 0 180)"/></g><path id="Oval-1-copy-6" d="m178.755624 105c.818394-4.878127 1.244376-9.8893168 1.244376-15s-.425982-10.1218729-1.244376-15h-177.51124757c-.81839455 4.8781271-1.24437643 9.8893168-1.24437643 15s.42598188 10.121873 1.24437643 15zm0 0" fill="#fff"/><path id="Oval-1-copy-5" d="m105 178.755624c-4.878127.818394-9.8893168 1.244376-15 1.244376s-10.1218729-.425982-15-1.244376v-177.51124756c4.8781271-.81839456 9.8893168-1.24437644 15-1.24437644s10.121873.42598188 15 1.24437641zm0 0" fill="#fff"/><path id="Oval-1-copy-7" d="m179.450712 100c.362955-3.2833385.549288-6.619909.549288-10s-.186333-6.7166615-.549288-10h-178.9014243c-.36295461 3.2833385-.5492877 6.619909-.5492877 10s.18633309 6.7166615.5492877 10zm0 0" fill="#ca4638"/><path id="Oval-1-copy-7" d="m100 179.450712c-3.2833385.362955-6.619909.549288-10 .549288s-6.7166615-.186333-10-.549288v-178.9014243c3.2833385-.36295461 6.619909-.5492877 10-.5492877s6.7166615.18633309 10 .5492877zm0 0" fill="#ca4638"/></g></g></svg>